<svg xmlns="http://www.w3.org/2000/svg" xmlns:xlink="http://www.w3.org/1999/xlink" width="500" zoomAndPan="magnify" viewBox="0 0 375 374.999991" height="500" preserveAspectRatio="xMidYMid meet" version="1.0"><defs><g/></defs><g fill="#ffffff" fill-opacity="1"><g transform="translate(109.914263, 223.299485)"><g><path d="M 77.550781 -1.847656 C 70.449219 -17.613281 62.78125 -33.234375 55.675781 -49.285156 C 67.039062 -53.40625 76.558594 -62.496094 76.558594 -79.824219 C 76.558594 -113.34375 44.597656 -113.628906 38.207031 -113.628906 L 1.421875 -113.628906 C 0.710938 -113.628906 0 -112.917969 0 -112.351562 L 0 -93.03125 L 38.207031 -93.03125 C 41.617188 -93.03125 54.96875 -92.324219 54.96875 -79.824219 C 54.96875 -67.324219 42.894531 -66.757812 38.207031 -66.757812 L 0 -66.757812 L 0 -1.277344 C 0 -0.710938 0.710938 0 1.421875 0 L 20.027344 0 C 20.878906 0 21.589844 -0.710938 21.589844 -1.277344 L 21.589844 -45.878906 L 33.804688 -45.878906 L 54.542969 -0.851562 C 54.683594 -0.425781 55.535156 0 55.960938 0 L 76.273438 0 C 77.410156 0 77.976562 -0.851562 77.550781 -1.847656 Z M 77.550781 -1.847656 "/></g></g></g><g fill="#ffffff" fill-opacity="1"><g transform="translate(185.362259, 273.282616)"><g><path d="M 20.167969 -113.628906 L 1.5625 -113.628906 C 0.710938 -113.628906 0 -112.917969 0 -112.351562 L 0 -67.75 L 21.730469 -67.75 L 21.730469 -92.890625 C 46.445312 -94.167969 64.769531 -83.800781 64.769531 -56.8125 C 64.769531 -21.730469 35.507812 -20.3125 21.730469 -20.878906 L 21.730469 -45.878906 L 0 -45.878906 L 0 -1.277344 C 0 -0.710938 0.710938 0 1.5625 0 L 20.167969 0 C 48.433594 0 86.640625 -8.238281 86.640625 -56.8125 C 86.640625 -107.238281 47.867188 -113.628906 20.167969 -113.628906 Z M 20.167969 -113.628906 "/></g></g></g><g fill="#ffffff" fill-opacity="1"><g transform="translate(104.184516, 246.38984)"><g><path d="M 2.875 -2.859375 L 2.875 0 L 0.6875 0 L 0.6875 -8.890625 L 3.9375 -8.890625 C 5.300781 -8.890625 6.269531 -8.65625 6.84375 -8.1875 C 7.425781 -7.726562 7.71875 -6.960938 7.71875 -5.890625 C 7.71875 -5.160156 7.5625 -4.566406 7.25 -4.109375 C 6.945312 -3.648438 6.484375 -3.316406 5.859375 -3.109375 L 8.03125 0 L 5.390625 0 L 3.546875 -2.859375 Z M 5.484375 -5.890625 C 5.484375 -6.265625 5.367188 -6.523438 5.140625 -6.671875 C 4.921875 -6.828125 4.519531 -6.90625 3.9375 -6.90625 L 2.875 -6.90625 L 2.875 -4.640625 L 3.9375 -4.640625 C 4.519531 -4.640625 4.921875 -4.726562 5.140625 -4.90625 C 5.367188 -5.09375 5.484375 -5.421875 5.484375 -5.890625 Z M 5.484375 -5.890625 "/></g></g></g><g fill="#ffffff" fill-opacity="1"><g transform="translate(120.097611, 246.38984)"><g><path d="M 6.8125 -2.0625 L 6.8125 0 L 0.6875 0 L 0.6875 -8.890625 L 6.6875 -8.890625 L 6.6875 -6.90625 L 2.875 -6.90625 L 2.875 -5.4375 L 6.15625 -5.4375 L 6.15625 -3.59375 L 2.875 -3.59375 L 2.875 -2.0625 Z M 6.8125 -2.0625 "/></g></g></g><g fill="#ffffff" fill-opacity="1"><g transform="translate(134.989665, 246.38984)"><g><path d="M 6.8125 -2.0625 L 6.8125 0 L 0.6875 0 L 0.6875 -8.890625 L 6.6875 -8.890625 L 6.6875 -6.90625 L 2.875 -6.90625 L 2.875 -5.4375 L 6.15625 -5.4375 L 6.15625 -3.59375 L 2.875 -3.59375 L 2.875 -2.0625 Z M 6.8125 -2.0625 "/></g></g></g><g fill="#ffffff" fill-opacity="1"><g transform="translate(149.881718, 246.38984)"><g><path d="M 8.359375 -8.890625 L 8.359375 0 L 6.25 0 L 2.734375 -5.140625 L 2.734375 0 L 0.6875 0 L 0.6875 -8.890625 L 2.765625 -8.890625 L 6.296875 -3.5625 L 6.296875 -8.890625 Z M 8.359375 -8.890625 "/></g></g></g><g fill="#ffffff" fill-opacity="1"><g transform="translate(166.645683, 246.38984)"><g><path d="M 2.265625 0 L -0.046875 0 L 3.25 -8.890625 L 5.53125 -8.890625 L 8.734375 0 L 6.4375 0 L 5.96875 -1.484375 L 2.734375 -1.484375 Z M 4.34375 -6.703125 C 4.269531 -6.441406 4.1875 -6.160156 4.09375 -5.859375 C 4 -5.566406 3.847656 -5.082031 3.640625 -4.40625 L 3.28125 -3.234375 L 5.421875 -3.234375 L 5.046875 -4.40625 C 4.921875 -4.769531 4.796875 -5.148438 4.671875 -5.546875 C 4.554688 -5.953125 4.445312 -6.335938 4.34375 -6.703125 Z M 4.34375 -6.703125 "/></g></g></g><g fill="#ffffff" fill-opacity="1"><g transform="translate(196.414368, 148.523736)"><g><path d="M 3.78125 0 L 0.6875 0 L 0.6875 -8.890625 L 3.78125 -8.890625 C 4.695312 -8.890625 5.421875 -8.8125 5.953125 -8.65625 C 6.484375 -8.507812 6.910156 -8.269531 7.234375 -7.9375 C 7.554688 -7.613281 7.789062 -7.171875 7.9375 -6.609375 C 8.082031 -6.046875 8.15625 -5.328125 8.15625 -4.453125 C 8.15625 -2.910156 7.8125 -1.78125 7.125 -1.0625 C 6.4375 -0.351562 5.320312 0 3.78125 0 Z M 5.53125 -6.34375 C 5.394531 -6.539062 5.195312 -6.679688 4.9375 -6.765625 C 4.6875 -6.859375 4.300781 -6.90625 3.78125 -6.90625 L 2.875 -6.90625 L 2.875 -2.0625 L 3.78125 -2.0625 C 4.289062 -2.0625 4.675781 -2.101562 4.9375 -2.1875 C 5.195312 -2.269531 5.394531 -2.40625 5.53125 -2.59375 C 5.65625 -2.769531 5.742188 -3.007812 5.796875 -3.3125 C 5.859375 -3.613281 5.890625 -3.992188 5.890625 -4.453125 C 5.890625 -4.929688 5.859375 -5.316406 5.796875 -5.609375 C 5.742188 -5.910156 5.65625 -6.15625 5.53125 -6.34375 Z M 5.53125 -6.34375 "/></g></g></g><g fill="#ffffff" fill-opacity="1"><g transform="translate(212.68199, 148.523736)"><g><path d="M 2.875 -8.890625 L 2.875 0 L 0.6875 0 L 0.6875 -8.890625 Z M 2.875 -8.890625 "/></g></g></g><g fill="#ffffff" fill-opacity="1"><g transform="translate(223.972026, 148.523736)"><g><path d="M 3.046875 0 L -0.03125 -8.890625 L 2.421875 -8.890625 L 3.75 -4.5 C 3.832031 -4.207031 3.929688 -3.816406 4.046875 -3.328125 C 4.171875 -2.835938 4.289062 -2.351562 4.40625 -1.875 C 4.613281 -2.726562 4.765625 -3.332031 4.859375 -3.6875 C 4.953125 -4.039062 5.019531 -4.304688 5.0625 -4.484375 L 6.375 -8.890625 L 8.75 -8.890625 L 5.6875 0 Z M 3.046875 0 "/></g></g></g><g fill="#ffffff" fill-opacity="1"><g transform="translate(240.424004, 148.523736)"><g><path d="M 6.203125 -8.890625 L 8.46875 -8.890625 L 5.359375 -3.234375 L 5.359375 0 L 3.15625 0 L 3.15625 -3.234375 L -0.03125 -8.890625 L 2.484375 -8.890625 L 4.265625 -5.171875 Z M 6.203125 -8.890625 "/></g></g></g><g fill="#ffffff" fill-opacity="1"><g transform="translate(256.620719, 148.523736)"><g><path d="M 2.265625 0 L -0.046875 0 L 3.25 -8.890625 L 5.53125 -8.890625 L 8.734375 0 L 6.4375 0 L 5.96875 -1.484375 L 2.734375 -1.484375 Z M 4.34375 -6.703125 C 4.269531 -6.441406 4.1875 -6.160156 4.09375 -5.859375 C 4 -5.566406 3.847656 -5.082031 3.640625 -4.40625 L 3.28125 -3.234375 L 5.421875 -3.234375 L 5.046875 -4.40625 C 4.921875 -4.769531 4.796875 -5.148438 4.671875 -5.546875 C 4.554688 -5.953125 4.445312 -6.335938 4.34375 -6.703125 Z M 4.34375 -6.703125 "/></g></g></g></svg>