<svg xmlns="http://www.w3.org/2000/svg" xmlns:xlink="http://www.w3.org/1999/xlink" width="500" zoomAndPan="magnify" viewBox="0 0 375 374.999991" height="500" preserveAspectRatio="xMidYMid meet" version="1.0"><defs><g/></defs><g fill="#000000" fill-opacity="1"><g transform="translate(109.914263, 223.299485)"><g><path d="M 77.550781 -1.847656 C 70.449219 -17.613281 62.78125 -33.234375 55.675781 -49.285156 C 67.039062 -53.40625 76.558594 -62.496094 76.558594 -79.824219 C 76.558594 -113.34375 44.597656 -113.628906 38.207031 -113.628906 L 1.421875 -113.628906 C 0.710938 -113.628906 0 -112.917969 0 -112.351562 L 0 -93.03125 L 38.207031 -93.03125 C 41.617188 -93.03125 54.96875 -92.324219 54.96875 -79.824219 C 54.96875 -67.324219 42.894531 -66.757812 38.207031 -66.757812 L 0 -66.757812 L 0 -1.277344 C 0 -0.710938 0.710938 0 1.421875 0 L 20.027344 0 C 20.878906 0 21.589844 -0.710938 21.589844 -1.277344 L 21.589844 -45.878906 L 33.804688 -45.878906 L 54.542969 -0.851562 C 54.683594 -0.425781 55.535156 0 55.960938 0 L 76.273438 0 C 77.410156 0 77.976562 -0.851562 77.550781 -1.847656 Z M 77.550781 -1.847656 "/></g></g></g><g fill="#000000" fill-opacity="1"><g transform="translate(185.362259, 273.282616)"><g><path d="M 20.167969 -113.628906 L 1.5625 -113.628906 C 0.710938 -113.628906 0 -112.917969 0 -112.351562 L 0 -67.75 L 21.730469 -67.75 L 21.730469 -92.890625 C 46.445312 -94.167969 64.769531 -83.800781 64.769531 -56.8125 C 64.769531 -21.730469 35.507812 -20.3125 21.730469 -20.878906 L 21.730469 -45.878906 L 0 -45.878906 L 0 -1.277344 C 0 -0.710938 0.710938 0 1.5625 0 L 20.167969 0 C 48.433594 0 86.640625 -8.238281 86.640625 -56.8125 C 86.640625 -107.238281 47.867188 -113.628906 20.167969 -113.628906 Z M 20.167969 -113.628906 "/></g></g></g><g fill="#000000" fill-opacity="1"><g transform="translate(106.789891, 245.809811)"><g><path d="M 3 -2.984375 L 3 0 L 0.703125 0 L 0.703125 -9.265625 L 4.09375 -9.265625 C 5.519531 -9.265625 6.53125 -9.019531 7.125 -8.53125 C 7.726562 -8.050781 8.03125 -7.25 8.03125 -6.125 C 8.03125 -5.363281 7.867188 -4.742188 7.546875 -4.265625 C 7.234375 -3.796875 6.75 -3.453125 6.09375 -3.234375 L 8.359375 0 L 5.609375 0 L 3.6875 -2.984375 Z M 5.71875 -6.125 C 5.71875 -6.519531 5.597656 -6.796875 5.359375 -6.953125 C 5.117188 -7.109375 4.695312 -7.1875 4.09375 -7.1875 L 3 -7.1875 L 3 -4.828125 L 4.09375 -4.828125 C 4.695312 -4.828125 5.117188 -4.921875 5.359375 -5.109375 C 5.597656 -5.304688 5.71875 -5.644531 5.71875 -6.125 Z M 5.71875 -6.125 "/></g></g></g><g fill="#000000" fill-opacity="1"><g transform="translate(123.354925, 245.809811)"><g><path d="M 7.09375 -2.140625 L 7.09375 0 L 0.703125 0 L 0.703125 -9.265625 L 6.953125 -9.265625 L 6.953125 -7.1875 L 3 -7.1875 L 3 -5.65625 L 6.40625 -5.65625 L 6.40625 -3.734375 L 3 -3.734375 L 3 -2.140625 Z M 7.09375 -2.140625 "/></g></g></g><g fill="#000000" fill-opacity="1"><g transform="translate(138.857087, 245.809811)"><g><path d="M 7.09375 -2.140625 L 7.09375 0 L 0.703125 0 L 0.703125 -9.265625 L 6.953125 -9.265625 L 6.953125 -7.1875 L 3 -7.1875 L 3 -5.65625 L 6.40625 -5.65625 L 6.40625 -3.734375 L 3 -3.734375 L 3 -2.140625 Z M 7.09375 -2.140625 "/></g></g></g><g fill="#000000" fill-opacity="1"><g transform="translate(154.359249, 245.809811)"><g><path d="M 8.703125 -9.265625 L 8.703125 0 L 6.515625 0 L 2.84375 -5.34375 L 2.84375 0 L 0.703125 0 L 0.703125 -9.265625 L 2.875 -9.265625 L 6.5625 -3.703125 L 6.5625 -9.265625 Z M 8.703125 -9.265625 "/></g></g></g><g fill="#000000" fill-opacity="1"><g transform="translate(171.810012, 245.809811)"><g><path d="M 2.359375 0 L -0.046875 0 L 3.375 -9.265625 L 5.765625 -9.265625 L 9.09375 0 L 6.703125 0 L 6.21875 -1.546875 L 2.84375 -1.546875 Z M 4.515625 -6.984375 C 4.441406 -6.710938 4.359375 -6.421875 4.265625 -6.109375 C 4.171875 -5.796875 4.015625 -5.289062 3.796875 -4.59375 L 3.40625 -3.359375 L 5.640625 -3.359375 L 5.25 -4.59375 C 5.125 -4.96875 5 -5.363281 4.875 -5.78125 C 4.75 -6.195312 4.628906 -6.597656 4.515625 -6.984375 Z M 4.515625 -6.984375 "/></g></g></g><g fill="#000000" fill-opacity="1"><g transform="translate(194.252423, 150.399637)"><g><path d="M 3.9375 0 L 0.703125 0 L 0.703125 -9.265625 L 3.9375 -9.265625 C 4.882812 -9.265625 5.632812 -9.179688 6.1875 -9.015625 C 6.75 -8.859375 7.195312 -8.609375 7.53125 -8.265625 C 7.863281 -7.921875 8.101562 -7.457031 8.25 -6.875 C 8.40625 -6.289062 8.484375 -5.546875 8.484375 -4.640625 C 8.484375 -3.035156 8.125 -1.859375 7.40625 -1.109375 C 6.6875 -0.367188 5.53125 0 3.9375 0 Z M 5.765625 -6.59375 C 5.617188 -6.800781 5.410156 -6.953125 5.140625 -7.046875 C 4.878906 -7.140625 4.476562 -7.1875 3.9375 -7.1875 L 3 -7.1875 L 3 -2.140625 L 3.9375 -2.140625 C 4.46875 -2.140625 4.863281 -2.179688 5.125 -2.265625 C 5.394531 -2.359375 5.609375 -2.503906 5.765625 -2.703125 C 5.890625 -2.890625 5.976562 -3.132812 6.03125 -3.4375 C 6.09375 -3.75 6.125 -4.148438 6.125 -4.640625 C 6.125 -5.128906 6.09375 -5.53125 6.03125 -5.84375 C 5.976562 -6.15625 5.890625 -6.40625 5.765625 -6.59375 Z M 5.765625 -6.59375 "/></g></g></g><g fill="#000000" fill-opacity="1"><g transform="translate(211.186509, 150.399637)"><g><path d="M 3 -9.265625 L 3 0 L 0.703125 0 L 0.703125 -9.265625 Z M 3 -9.265625 "/></g></g></g><g fill="#000000" fill-opacity="1"><g transform="translate(222.939083, 150.399637)"><g><path d="M 3.171875 0 L -0.03125 -9.265625 L 2.53125 -9.265625 L 3.890625 -4.6875 C 3.984375 -4.375 4.09375 -3.960938 4.21875 -3.453125 C 4.351562 -2.953125 4.476562 -2.453125 4.59375 -1.953125 C 4.8125 -2.847656 4.96875 -3.476562 5.0625 -3.84375 C 5.15625 -4.207031 5.222656 -4.484375 5.265625 -4.671875 L 6.625 -9.265625 L 9.109375 -9.265625 L 5.921875 0 Z M 3.171875 0 "/></g></g></g><g fill="#000000" fill-opacity="1"><g transform="translate(240.065077, 150.399637)"><g><path d="M 6.453125 -9.265625 L 8.8125 -9.265625 L 5.578125 -3.359375 L 5.578125 0 L 3.296875 0 L 3.296875 -3.359375 L -0.03125 -9.265625 L 2.578125 -9.265625 L 4.4375 -5.390625 Z M 6.453125 -9.265625 "/></g></g></g><g fill="#000000" fill-opacity="1"><g transform="translate(256.925351, 150.399637)"><g><path d="M 2.359375 0 L -0.046875 0 L 3.375 -9.265625 L 5.765625 -9.265625 L 9.09375 0 L 6.703125 0 L 6.21875 -1.546875 L 2.84375 -1.546875 Z M 4.515625 -6.984375 C 4.441406 -6.710938 4.359375 -6.421875 4.265625 -6.109375 C 4.171875 -5.796875 4.015625 -5.289062 3.796875 -4.59375 L 3.40625 -3.359375 L 5.640625 -3.359375 L 5.25 -4.59375 C 5.125 -4.96875 5 -5.363281 4.875 -5.78125 C 4.75 -6.195312 4.628906 -6.597656 4.515625 -6.984375 Z M 4.515625 -6.984375 "/></g></g></g></svg>